<?xml version="1.0" encoding="UTF-8"?>
<svg id="Layer_2" data-name="Layer 2" xmlns="http://www.w3.org/2000/svg" viewBox="0 0 1533.77 528.84">
  <defs>
    <style>
      .cls-1 {
        fill: #fff;
        stroke-width: 0px;
      }
    </style>
  </defs>
  <g id="Livello_2" data-name="Livello 2">
    <path class="cls-1" d="M172.24,259.11c-12.33-4.75-25.08-8.33-38.08-10.7-13.64-2.53-26.34-5.06-38.09-7.6-11.75-2.54-21.46-5.87-29.12-10-7.66-4.12-11.49-9.99-11.48-17.6-.11-6.08,2.32-11.93,6.69-16.15,4.48-4.44,10.36-7.85,17.64-10.23,7.69-2.44,15.73-3.65,23.8-3.57,11.86-.15,23.65,1.95,34.73,6.19,6.18,2.41,11.79,6.07,16.48,10.76,5.99,5.89,15.05,7.38,22.61,3.7l3.73-1.8c9.96-4.78,14.16-16.73,9.38-26.68-1.3-2.7-3.19-5.08-5.53-6.96-.89-.7-1.79-1.4-2.71-2.09-9.5-7.16-20.88-12.79-34.13-16.88s-28.47-6.15-45.65-6.18c-19.79,0-37.43,3.09-52.92,9.27-15.49,6.18-27.63,14.58-36.43,25.21C4.56,187.96-.11,200.87,0,214.18c0,14.58,3.83,26.15,11.49,34.71,8.02,8.84,17.99,15.68,29.12,20,12.28,4.91,25.04,8.5,38.08,10.7,13.63,2.38,26.32,4.76,38.08,7.14s21.47,5.63,29.13,9.74c7.65,4.13,11.48,10.31,11.48,18.55.08,6.45-2.53,12.65-7.22,17.09-4.86,4.76-11.39,8.33-19.6,10.7-9.31,2.52-18.93,3.72-28.57,3.57-15.33,0-28.49-2.38-39.48-7.14-7.08-3.07-13.43-7.61-18.64-13.3-5.91-6.4-15.29-8.24-23.18-4.54l-4.86,2.24c-10,4.68-14.32,16.59-9.64,26.59,1.14,2.43,2.76,4.61,4.76,6.41,7.84,6.96,16.72,12.64,26.32,16.84,19.22,8.56,41.53,12.84,66.92,12.84,18.39.17,36.67-2.8,54.05-8.79,16.61-5.87,29.87-14.27,39.76-25.21,9.68-10.38,14.99-24.09,14.84-38.28,0-14.9-3.83-26.63-11.48-35.19-8-8.8-17.98-15.57-29.12-19.74Z"/>
    <path class="cls-1" d="M457.16,159.51c-18.71-10.94-39.8-16.41-63.25-16.41s-44.54,5.31-63.25,15.93c-18.41,10.32-33.77,25.33-44.5,43.51-10.94,18.39-16.41,39.16-16.41,62.3v244c0,11.05,8.95,20,20,20h6.83c11.05,0,20-8.95,20-20,0-.08,0-.17,0-.25-.5-39.7-1-119.4-1.51-159.09.37.71,1,1.8,1.76,3.08,1.9,3,8,10.7,27.36,21.66,15.73,8.88,33.52,13.47,51.59,13.31,23.78,0,44.78-5.31,63-15.93,18.02-10.43,32.88-25.55,43-43.75,10.46-18.55,15.69-39.55,15.69-63,.2-21.45-5.39-42.56-16.17-61.11-10.58-18.37-25.8-33.63-44.14-44.25ZM460.49,304.07c-6.51,11.73-15.95,21.58-27.4,28.57-11.57,7.13-24.64,10.69-39.23,10.69s-27.66-3.56-39.23-10.69c-11.46-7.02-20.96-16.84-27.58-28.54-13.64-24.12-13.64-53.63,0-77.75,6.64-11.56,16.14-21.22,27.58-28.06,11.57-6.97,24.64-10.46,39.23-10.46s27.66,3.49,39.23,10.46c11.4,6.81,20.83,16.48,27.35,28.06,13.31,24.21,13.31,53.54,0,77.75l.05-.03Z"/>
    <path class="cls-1" d="M1519.71,198.72c-9.07-17.3-22.73-31.78-39.47-41.85-16.96-10.3-37.17-15.45-60.63-15.45-23.46,0-44.07,5.47-61.82,16.4-17.55,10.71-31.85,26-41.37,44.23-9.83,18.55-14.74,38.92-14.74,61.11,0,23.77,5.39,44.93,16.17,63.48,10.52,18.31,25.8,33.42,44.22,43.75,18.67,10.63,39.75,15.94,63.25,15.93,22.82,0,43.27-5.23,61.34-15.69,11.36-6.56,21.38-15.23,29.5-25.54,6.79-8.71,5.24-21.28-3.48-28.07-.99-.77-2.05-1.45-3.16-2.02l-1.13-.58c-8.3-4.23-18.41-2.19-24.43,4.92-5.43,6.39-12.02,11.69-19.43,15.62-11.89,6.35-25.13,9.52-39.71,9.52-16.17,0-30.28-3.89-42.32-11.66-11.91-7.62-21.46-18.42-27.56-31.18-3.7-7.88-6.13-16.3-7.2-24.94-1.72-13.33.14-23.58,1.49-30.7,1.43-7.56,3.8-19.45,11.65-31.86,2.52-4.05,5.48-7.82,8.82-11.24,4.42-4.43,9.48-8.17,15-11.12,10-5.38,21.49-8.07,34.48-8.08,12.67,0,24,2.54,34,7.61,9.82,4.92,18.06,12.5,23.78,21.87,3.91,6.38,6.68,13.38,8.19,20.71,1.15,5.4-2.3,10.71-7.7,11.86-.69.15-1.39.22-2.09.22-28.22-.08-61.41-.15-90.08-.22-8.53-.03-15.47,6.87-15.5,15.4,0,.02,0,.04,0,.06h0c0,8.54,6.92,15.46,15.46,15.46h.03l129.5-.22c10.49,0,19-8.51,19-19,0-.02,0-.03,0-.05h0c-.02-21.53-4.71-41.09-14.06-58.68Z"/>
    <path class="cls-1" d="M885.46,214.75v-.06c-28.37-39.05-68.68-90.6-129-143.08-9-7.83-22.4-7.83-31.4,0-60.3,52.49-100.62,104.07-129,143.13v.07c-14.52,20.24-29,42.42-31.93,71.24-3.11,29.53,6.13,59.02,25.53,81.5,17.35,19.9,41.1,31.17,66.86,31.75h2.19c29.5,0,52.32-13.88,63.3-22.15,10.54-7.97,12.63-22.97,4.66-33.51-7.97-10.54-22.97-12.63-33.51-4.66-5,3.77-18.37,12.52-34.68,12.52h-1c-12.5-.28-23.23-5.45-31.89-15.37-10.57-12.42-15.62-28.61-14-44.84v-.15c1.78-17.35,11.13-31.57,23.17-48.36,24.12-33.19,57.67-76.42,106-121,48.29,44.59,81.82,87.8,105.93,121,12.06,16.81,21.43,31.07,23.22,48.54v.15c1.61,16.19-3.45,32.33-14,44.71-8.65,9.92-19.39,15.09-31.91,15.37h-1c-16.21,0-29.61-8.76-34.63-12.53-4.13-3.13-9.18-4.82-14.36-4.81-7.52.01-14.59,3.54-19.12,9.54-7.93,10.56-5.81,25.54,4.74,33.48,11,8.27,33.83,22.14,63.31,22.14h2.16c25.76-.58,49.5-11.85,66.86-31.75,19.27-22.1,28.82-52.51,25.54-81.37-3.05-29.03-16.9-50.38-32.04-71.5Z"/>
    <path class="cls-1" d="M795.24,429.82h-109c-12.98,0-23.5,10.52-23.5,23.5s10.52,23.5,23.5,23.5h109c12.98,0,23.5-10.52,23.5-23.5s-10.52-23.5-23.5-23.5Z"/>
    <path class="cls-1" d="M1236.72,77.38c-14.11-24.26-34.8-44.02-59.68-57C1151.51,6.8,1121.63,0,1087.4,0h-90.33c-11.05,0-20,9.25-20,20.66-1.3,190-1.35,329.43,0,343.5.24,2.53.91,9.49,5.86,14.6,4.79,5,11.25,5.74,14.14,6.05,28.9,3.13,80.31.39,87.95,0,16.36-.84,22.83-.65,35.66-2.82,11.18-1.78,22.17-4.62,32.82-8.48,30.86-11.28,50-28.35,54.92-32.9,5.11-4.71,9.89-9.77,14.31-15.13,9.13-11.29,16.64-23.8,22.31-37.17,2.26-5.32,8.91-21.83,12.64-55.72,2.88-26.43,2.94-53.09.19-79.54-.71-18.34-4.6-47.29-21.15-75.67ZM1207.16,236.74c-3.16,20.13-7,29.62-8.26,32.69-5.99,14.29-14.89,27.17-26.15,37.82-15.41,14.5-30.77,20.41-39.24,23.57-15.59,5.82-27.59,6.8-48.5,8.35-16.62,1.22-33.29,1.41-49.93.58-5.41-.36-9.59-4.9-9.51-10.32V56.52c-.09-5.61,4.39-10.23,10-10.32,0,0,0,0,0,0h51.82c24.08,0,45.16,4.91,63.24,14.73,17.67,9.44,32.34,23.64,42.33,41,10.22,17.64,12.4,33.94,15.08,55.11,3.46,26.48,3.17,53.31-.88,79.7Z"/>
  </g>
</svg>