<?xml version="1.0" encoding="UTF-8"?>
<svg id="Layer_2" data-name="Layer 2" xmlns="http://www.w3.org/2000/svg" viewBox="0 0 354.61 411.09">
  <defs>
    <style>
      .cls-1 {
        fill: #fff;
        stroke-width: 0px;
      }
    </style>
  </defs>
  <g id="Livello_2" data-name="Livello 2">
    <path class="cls-1" d="M321.91,149.02v-.06c-28.38-39.05-68.68-90.6-129-143.08-9-7.84-22.39-7.84-31.39,0C101.22,58.37,60.9,109.94,32.52,149.01v.06C18,169.32,3.52,191.5.59,220.32c-3.11,29.53,6.13,59.02,25.53,81.5,17.35,19.89,41.1,31.17,66.86,31.75h2.18c29.51,0,52.33-13.88,63.3-22.16,10.54-7.93,12.65-22.91,4.72-33.45,0,0-.01-.02-.02-.03-4.53-5.99-11.6-9.51-19.1-9.52-5.19-.01-10.24,1.68-14.38,4.82-5,3.76-18.37,12.52-34.68,12.52h-1c-12.5-.28-23.23-5.45-31.89-15.37-10.57-12.42-15.62-28.61-14-44.84v-.15c1.78-17.35,11.13-31.58,23.17-48.37,24.12-33.18,57.67-76.42,106-121,48.29,44.58,81.82,87.8,105.92,121,12.07,16.82,21.44,31.08,23.23,48.55,0,.05,0,.1,0,.15,1.6,16.19-3.48,32.33-14.05,44.7-8.65,9.93-19.39,15.1-31.91,15.38h-1c-16.2,0-29.61-8.77-34.62-12.54-4.13-3.13-9.18-4.81-14.36-4.8-7.52.01-14.59,3.54-19.12,9.54-7.93,10.56-5.81,25.54,4.74,33.48,11,8.27,33.83,22.14,63.31,22.14h2.15c25.76-.57,49.51-11.85,66.87-31.74,19.27-22.1,28.81-52.51,25.54-81.37-3.07-29.03-16.92-50.42-32.07-71.49Z"/>
    <path class="cls-1" d="M231.73,364.09h-109c-12.98,0-23.5,10.52-23.5,23.5s10.52,23.5,23.5,23.5h109c12.98,0,23.5-10.52,23.5-23.5s-10.52-23.5-23.5-23.5Z"/>
  </g>
</svg>